<svg width="84" height="40" viewBox="0 0 84 40" fill="none" xmlns="http://www.w3.org/2000/svg">
<path d="M6.04545 30.2884C5.07102 30.2884 4.20265 30.1193 3.44034 29.7812C2.67803 29.4366 2.07481 28.9295 1.63068 28.2599C1.19318 27.5838 0.974432 26.742 0.974432 25.7344C0.974432 24.8859 1.13021 24.1733 1.44176 23.5966C1.75331 23.0199 2.17756 22.5559 2.71449 22.2045C3.25142 21.8532 3.86127 21.5881 4.54403 21.4091C5.23343 21.2301 5.95597 21.1042 6.71165 21.0312C7.59991 20.9384 8.31581 20.8523 8.85938 20.7727C9.40294 20.6866 9.79735 20.5606 10.0426 20.3949C10.2879 20.2292 10.4105 19.9839 10.4105 19.6591V19.5994C10.4105 18.9697 10.2116 18.4825 9.81392 18.1378C9.42282 17.7931 8.866 17.6207 8.14347 17.6207C7.38116 17.6207 6.77462 17.7898 6.32386 18.1278C5.87311 18.4593 5.57481 18.8769 5.42898 19.3807L1.51136 19.0625C1.71023 18.1345 2.10133 17.3324 2.68466 16.6562C3.26799 15.9735 4.02036 15.4498 4.94176 15.0852C5.86979 14.714 6.94366 14.5284 8.16335 14.5284C9.01184 14.5284 9.82386 14.6278 10.5994 14.8267C11.3816 15.0256 12.0743 15.3338 12.6776 15.7514C13.2874 16.169 13.768 16.706 14.1193 17.3622C14.4706 18.0118 14.6463 18.7907 14.6463 19.6989V30H10.6293V27.8821H10.5099C10.2647 28.3594 9.93655 28.7803 9.52557 29.1449C9.11458 29.5028 8.62074 29.7846 8.04403 29.9901C7.46733 30.1889 6.80114 30.2884 6.04545 30.2884ZM7.25852 27.3651C7.88163 27.3651 8.43182 27.2424 8.90909 26.9972C9.38636 26.7453 9.76089 26.4072 10.0327 25.983C10.3045 25.5587 10.4403 25.0781 10.4403 24.5412V22.9205C10.3078 23.0066 10.1255 23.0862 9.89347 23.1591C9.66809 23.2254 9.41288 23.2884 9.12784 23.348C8.8428 23.401 8.55777 23.4508 8.27273 23.4972C7.98769 23.5369 7.72917 23.5734 7.49716 23.6065C7 23.6795 6.56581 23.7955 6.1946 23.9545C5.82339 24.1136 5.53504 24.3291 5.32955 24.6009C5.12405 24.866 5.02131 25.1974 5.02131 25.5952C5.02131 26.1719 5.23011 26.6127 5.64773 26.9176C6.07197 27.2159 6.6089 27.3651 7.25852 27.3651ZM26.0561 14.7273V17.9091H16.8587V14.7273H26.0561ZM18.9467 11.0682H23.1825V25.3068C23.1825 25.6979 23.2422 26.0028 23.3615 26.2216C23.4808 26.4337 23.6465 26.5829 23.8587 26.669C24.0774 26.7552 24.3293 26.7983 24.6143 26.7983C24.8132 26.7983 25.0121 26.7817 25.2109 26.7486C25.4098 26.7088 25.5623 26.679 25.6683 26.6591L26.3345 29.8111C26.1224 29.8774 25.8241 29.9536 25.4396 30.0398C25.0552 30.1326 24.5878 30.1889 24.0376 30.2088C23.0168 30.2486 22.1219 30.1127 21.353 29.8011C20.5907 29.4896 19.9974 29.0057 19.5732 28.3494C19.1489 27.6932 18.9401 26.8646 18.9467 25.8636V11.0682ZM36.9389 14.7273V17.9091H27.7415V14.7273H36.9389ZM29.8295 11.0682H34.0653V25.3068C34.0653 25.6979 34.125 26.0028 34.2443 26.2216C34.3636 26.4337 34.5294 26.5829 34.7415 26.669C34.9602 26.7552 35.2121 26.7983 35.4972 26.7983C35.696 26.7983 35.8949 26.7817 36.0938 26.7486C36.2926 26.7088 36.4451 26.679 36.5511 26.6591L37.2173 29.8111C37.0052 29.8774 36.7069 29.9536 36.3224 30.0398C35.938 30.1326 35.4706 30.1889 34.9205 30.2088C33.8996 30.2486 33.0047 30.1127 32.2358 29.8011C31.4735 29.4896 30.8802 29.0057 30.456 28.3494C30.0317 27.6932 29.8229 26.8646 29.8295 25.8636V11.0682ZM39.6982 30V14.7273H43.8047V17.392H43.9638C44.2422 16.4441 44.7095 15.7282 45.3658 15.2443C46.022 14.7538 46.7777 14.5085 47.6328 14.5085C47.8449 14.5085 48.0736 14.5218 48.3189 14.5483C48.5642 14.5748 48.7796 14.6113 48.9652 14.6577V18.4162C48.7663 18.3565 48.4912 18.3035 48.1399 18.2571C47.7886 18.2107 47.4671 18.1875 47.1754 18.1875C46.5523 18.1875 45.9955 18.3234 45.505 18.5952C45.0211 18.8603 44.6366 19.2315 44.3516 19.7088C44.0732 20.1861 43.9339 20.7363 43.9339 21.3594V30H39.6982ZM67.641 30V9.63636H71.8768V17.2926H72.006C72.1916 16.8816 72.4601 16.464 72.8114 16.0398C73.1694 15.6089 73.6334 15.2509 74.2035 14.9659C74.7802 14.6742 75.4961 14.5284 76.3512 14.5284C77.4648 14.5284 78.4923 14.8201 79.4336 15.4034C80.3749 15.9801 81.1272 16.8518 81.6907 18.0185C82.2541 19.1785 82.5359 20.6335 82.5359 22.3835C82.5359 24.0871 82.2608 25.5256 81.7106 26.6989C81.167 27.8655 80.4246 28.7505 79.4833 29.3537C78.5487 29.9503 77.5013 30.2486 76.3413 30.2486C75.5193 30.2486 74.82 30.1127 74.2433 29.8409C73.6732 29.5691 73.2058 29.2277 72.8413 28.8168C72.4767 28.3991 72.1983 27.9782 72.006 27.554H71.8171V30H67.641ZM71.7873 22.3636C71.7873 23.2718 71.9132 24.0639 72.1651 24.7401C72.417 25.4162 72.7816 25.9432 73.2589 26.321C73.7362 26.6922 74.3162 26.8778 74.9989 26.8778C75.6883 26.8778 76.2717 26.6889 76.7489 26.3111C77.2262 25.9266 77.5875 25.3963 77.8327 24.7202C78.0846 24.0374 78.2106 23.2519 78.2106 22.3636C78.2106 21.482 78.088 20.7064 77.8427 20.0369C77.5974 19.3674 77.2362 18.8437 76.7589 18.4659C76.2816 18.0881 75.695 17.8991 74.9989 17.8991C74.3095 17.8991 73.7262 18.0814 73.2489 18.446C72.7783 18.8106 72.417 19.3277 72.1651 19.9972C71.9132 20.6667 71.7873 21.4555 71.7873 22.3636Z" fill="white"/>
<path d="M53.7702 35.7273C53.2333 35.7273 52.7295 35.6842 52.2589 35.598C51.7949 35.5185 51.4104 35.4157 51.1055 35.2898L52.06 32.1278C52.5572 32.2803 53.0046 32.3632 53.4023 32.3764C53.8067 32.3897 54.1547 32.2969 54.4464 32.098C54.7447 31.8991 54.9866 31.5611 55.1722 31.0838L55.4208 30.4375L49.9421 14.7273H54.3967L57.5586 25.9432H57.7177L60.9094 14.7273H65.3938L59.4577 31.6506C59.1727 32.4725 58.7849 33.1884 58.2944 33.7983C57.8105 34.4148 57.1973 34.8887 56.4549 35.2202C55.7125 35.5582 54.8176 35.7273 53.7702 35.7273Z" fill="#6E40FF"/>
</svg>
